<svg width="130" height="103" viewBox="0 0 130 103" fill="none" xmlns="http://www.w3.org/2000/svg">
<g clip-path="url(#clip0_107_40)">
<path d="M60.5198 33.1329C59.7423 38.8982 64.2774 44.1538 70.6404 44.8518C76.9871 45.5499 82.768 41.4318 83.5455 35.6665C84.3109 29.8975 79.7799 24.6493 73.4331 23.955C67.066 23.257 61.2893 27.3639 60.5198 33.1329Z" fill="white"/>
<path d="M58.6594 71.6248C58.7001 63.854 52.1661 60.253 47.7694 59.7138L46.9186 59.6584C44.4922 59.6658 41.6262 59.6732 38.7277 59.6806C41.2517 56.7591 46.2468 51.293 46.6621 50.6947C47.6269 52.0169 48.8116 53.3022 50.269 54.4767C53.7823 57.3242 58.1749 59.0342 63.4062 59.6141C66.2518 59.928 75.5134 59.1376 77.7525 58.7498C80.2806 58.2586 81.6403 57.3279 82.5441 56.1091C83.7369 54.0261 83.6229 51.6697 83.6229 51.6697C83.4356 47.4889 79.1488 46.0744 75.5704 46.8278C70.2292 47.921 63.0561 48.5858 59.1927 45.4982C57.5602 44.2018 56.6727 42.3515 56.2005 40.5935C57.6661 37.5686 57.4706 33.9418 55.3049 30.9723C51.9218 26.3372 45.3919 25.6096 39.9205 28.1285C34.4938 30.6326 20.7582 45.0956 17.2693 55.7509C17.2611 55.7472 17.2489 55.7472 17.2408 55.7472C17.2164 55.8617 17.1879 55.9762 17.1634 56.0943C16.7971 57.2762 16.5609 58.4174 16.4836 59.4774C16.1294 61.59 15.9381 63.577 15.9381 65.3424L16.0561 65.3646C16.0643 68.3636 18.6534 70.8676 21.9998 71.0338C23.9213 71.1299 40.7469 71.0929 46.0433 71.0855C46.0596 71.1668 46.0921 71.3219 46.0921 71.5878C46.0677 75.9755 46.0962 91.9454 46.1084 99.3506C46.1084 101.456 47.9933 103.129 50.3179 103.129H54.4825C55.5898 103.129 56.6646 102.752 57.4544 102.039C58.2401 101.323 58.6879 100.366 58.6838 99.3469C58.6675 91.9381 58.635 75.9977 58.6594 71.6248Z" fill="white"/>
<path d="M12.5917 23.3124C12.5917 20.1583 9.77046 17.6062 6.2938 17.6062C2.81715 17.6062 0 20.1583 0 23.3124V80.3632C0 83.303 2.47925 85.7296 5.63837 86.0324C5.64244 86.0435 5.67094 86.073 5.67094 86.073H7.93442V99.3801C7.93442 101.478 9.75824 103.181 12.0747 103.181C14.3951 103.181 16.2149 101.478 16.2149 99.3801V86.073H29.4946V99.3801C29.4946 101.478 31.3184 103.181 33.6348 103.181C35.9471 103.181 37.771 101.478 37.771 99.3801V86.073H41.9112V74.6533H12.5998V23.3124H12.5917Z" fill="white"/>
<path d="M125.856 61.2612C124.899 56.7738 121.732 52.9956 117.429 50.9162V47.2783H123.458V22.2228L100.518 14.7955V11.1428H92.2494V49.3133H100.518V47.2783H104.841V49.9116C99.1539 51.5478 94.8671 55.8801 93.715 61.1984H67.1108C64.7944 61.1984 62.9177 63.0119 62.9177 65.1171C62.9177 67.2149 64.7944 69.0357 67.1108 69.0357H75.5256V103.288H121.744V69.0357H125.807C128.115 69.0357 130 67.2555 130 65.1503C130 63.0488 128.156 61.2871 125.856 61.2612Z" fill="white"/>
<path d="M39.1388 15.2093H29.6574V15.0763L38.9678 2.80338V0.502441H24.4872V3.7895H33.1056V3.94093L23.6241 16.369V18.6514H39.1388V15.2093Z" fill="white"/>
<path d="M53.9696 15.3608H47.9363V15.3645L53.9696 7.53832V5.97974H44.6591V8.16618H50.1754V8.2659L44.1421 16.1955V17.5546H53.9696V15.3608Z" fill="white"/>
<path d="M64.8351 18.3375H60.6949V18.271L64.8351 12.8603V11.7671H58.4558V13.3331H62.246V13.3589L57.9388 18.8398V19.741H64.8351V18.3375Z" fill="white"/>
</g>
<defs>
<clipPath id="clip0_107_40">
<rect width="130" height="103" fill="white"/>
</clipPath>
</defs>
</svg>
