<svg width="496" height="528" viewBox="0 0 496 528" fill="none" xmlns="http://www.w3.org/2000/svg">
<g clip-path="url(#clip0_110_61)">
<path d="M248 160.928C261.254 160.928 272 150.183 272 136.928C272 123.673 261.254 112.928 248 112.928V160.928ZM97.1811 409.744C109.013 415.718 123.448 410.97 129.423 399.139C135.398 387.306 130.651 372.87 118.819 366.896L97.1811 409.744ZM224 136.928C224 150.183 234.746 160.928 248 160.928C261.254 160.928 272 150.183 272 136.928H224ZM272 24C272 10.7453 261.254 0 248 0C234.746 0 224 10.7453 224 24H272ZM247.923 112.928C234.669 112.971 223.958 123.751 224 137.005C224.042 150.26 234.822 160.971 248.077 160.928L247.923 112.928ZM330.326 171.573C343.133 174.989 356.285 167.376 359.702 154.569C363.117 141.762 355.504 128.611 342.698 125.195L330.326 171.573ZM73.4989 69.8122C67.607 57.9386 53.2058 53.0896 41.3322 58.9811C29.4586 64.873 24.6096 79.2742 30.5011 91.1478L73.4989 69.8122ZM76.5491 183.948C82.441 195.821 96.8423 200.672 108.716 194.778C120.589 188.886 125.438 174.486 119.547 162.612L76.5491 183.948ZM90.3491 487.738C81.368 497.488 81.9901 512.669 91.7382 521.651C101.487 530.634 116.67 530.01 125.651 520.262L90.3491 487.738ZM208.051 430.822C217.034 421.072 216.41 405.891 206.662 396.909C196.912 387.926 181.731 388.55 172.749 398.298L208.051 430.822ZM489.658 124.96C498.634 115.209 498.006 100.026 488.256 91.0477C478.506 82.0698 463.322 82.6966 454.342 92.448L489.658 124.96ZM389.702 162.656C380.726 172.407 381.354 187.59 391.104 196.57C400.854 205.546 416.038 204.918 425.018 195.168L389.702 162.656ZM172.749 398.298C163.768 408.048 164.39 423.229 174.138 432.211C183.888 441.194 199.069 440.57 208.051 430.822L172.749 398.298ZM267.2 331.2L284.851 347.462L284.874 347.437L267.2 331.2ZM425.018 195.168C433.997 185.418 433.37 170.237 423.619 161.258C413.869 152.279 398.682 152.906 389.702 162.656L425.018 195.168ZM194.336 390.886C181.261 388.71 168.899 397.549 166.725 410.624C164.551 423.699 173.389 436.061 186.464 438.234L194.336 390.886ZM472 278.112H496C496 277.542 495.981 276.976 495.939 276.406L472 278.112ZM418.589 157.7C406.874 151.499 392.349 155.969 386.147 167.684C379.949 179.398 384.416 193.923 396.131 200.125L418.589 157.7ZM183.094 325.334C190.845 336.083 205.846 338.515 216.598 330.762C227.347 323.011 229.779 308.01 222.026 297.258L183.094 325.334ZM248 221.632L247.971 197.632H247.808L248 221.632ZM264.733 250.419C275.965 257.456 290.774 254.054 297.811 242.819C304.848 231.587 301.446 216.778 290.211 209.741L264.733 250.419ZM248 112.928C182.33 112.928 121.741 129.655 76.8115 157.972C32.1939 186.093 0 227.958 0 278.112H48C48 250.282 65.9501 221.555 102.404 198.579C138.547 175.801 189.958 160.928 248 160.928V112.928ZM0 278.112C0 335.501 41.9114 381.834 97.1811 409.744L118.819 366.896C71.6886 343.098 48 309.875 48 278.112H0ZM272 136.928V24H224V136.928H272ZM248.077 160.928C275.843 160.838 303.498 164.418 330.326 171.573L342.698 125.195C311.782 116.949 279.917 112.825 247.923 112.928L248.077 160.928ZM30.5011 91.1478L76.5491 183.948L119.547 162.612L73.4989 69.8122L30.5011 91.1478ZM125.651 520.262L208.051 430.822L172.749 398.298L90.3491 487.738L125.651 520.262ZM454.342 92.448L389.702 162.656L425.018 195.168L489.658 124.96L454.342 92.448ZM208.051 430.822L284.851 347.462L249.549 314.938L172.749 398.298L208.051 430.822ZM284.874 347.437L319.594 309.645L284.266 277.149L249.526 314.963L284.874 347.437ZM319.594 309.645L425.018 195.168L389.702 162.656L284.266 277.149L319.594 309.645ZM186.464 438.234C206.806 441.619 227.395 443.312 248.016 443.296L248 395.296C230.026 395.309 212.067 393.834 194.336 390.886L186.464 438.234ZM248.016 443.296C313.686 443.296 374.259 426.57 419.187 398.253C463.805 370.131 496 328.266 496 278.112H448C448 305.942 430.051 334.669 393.597 357.645C357.453 380.422 306.042 395.296 248 395.296L248.016 443.296ZM495.939 276.406C492.362 226.144 463.123 181.276 418.589 157.7L396.131 200.125C426.029 215.952 445.658 246.074 448.061 279.818L495.939 276.406ZM222.026 297.258C214.902 287.379 213.885 274.346 219.392 263.482L176.576 241.782C162.956 268.659 165.469 300.893 183.094 325.334L222.026 297.258ZM219.392 263.482C224.899 252.614 236.01 245.728 248.192 245.632L247.808 197.632C217.677 197.872 190.198 214.906 176.576 241.782L219.392 263.482ZM248.029 245.632C253.936 245.626 259.725 247.283 264.733 250.419L290.211 209.741C277.552 201.811 262.909 197.613 247.971 197.632L248.029 245.632Z" fill="white"/>
</g>
<defs>
<clipPath id="clip0_110_61">
<rect width="496" height="528" fill="white"/>
</clipPath>
</defs>
</svg>
