<svg width="264" height="45" viewBox="0 0 264 45" fill="none" xmlns="http://www.w3.org/2000/svg">
<path d="M21.1543 30H19.5723V19.8828C19.5723 19.4987 19.5723 19.1699 19.5723 18.8965C19.5788 18.6165 19.5853 18.3626 19.5918 18.1348C19.6048 17.9004 19.6211 17.6628 19.6406 17.4219C19.4388 17.6302 19.25 17.8092 19.0742 17.959C18.8984 18.1022 18.6803 18.2812 18.4199 18.4961L16.7891 19.8047L15.9395 18.7012L19.8066 15.7227H21.1543V30ZM35.998 22.8418C35.998 24.0007 35.9102 25.0358 35.7344 25.9473C35.5586 26.8587 35.2819 27.6302 34.9043 28.2617C34.5267 28.8932 34.0384 29.375 33.4395 29.707C32.8405 30.0326 32.1211 30.1953 31.2812 30.1953C30.2201 30.1953 29.3411 29.9056 28.6445 29.3262C27.9544 28.7467 27.4368 27.9102 27.0918 26.8164C26.7533 25.7161 26.584 24.3913 26.584 22.8418C26.584 21.3184 26.737 20.0098 27.043 18.916C27.3555 17.8158 27.8568 16.9727 28.5469 16.3867C29.237 15.7943 30.1484 15.498 31.2812 15.498C32.3555 15.498 33.2409 15.791 33.9375 16.377C34.6341 16.9564 35.1517 17.7962 35.4902 18.8965C35.8288 19.9902 35.998 21.3053 35.998 22.8418ZM28.2148 22.8418C28.2148 24.1699 28.3158 25.2767 28.5176 26.1621C28.7194 27.0475 29.0449 27.7116 29.4941 28.1543C29.9499 28.5905 30.5456 28.8086 31.2812 28.8086C32.0169 28.8086 32.6094 28.5905 33.0586 28.1543C33.5143 27.7181 33.8431 27.0573 34.0449 26.1719C34.2533 25.2865 34.3574 24.1764 34.3574 22.8418C34.3574 21.5332 34.2565 20.4395 34.0547 19.5605C33.8529 18.6751 33.5273 18.0111 33.0781 17.5684C32.6289 17.1191 32.0299 16.8945 31.2812 16.8945C30.5326 16.8945 29.9336 17.1191 29.4844 17.5684C29.0352 18.0111 28.7096 18.6751 28.5078 19.5605C28.3125 20.4395 28.2148 21.5332 28.2148 22.8418ZM44.0449 30H42.4629V19.8828C42.4629 19.4987 42.4629 19.1699 42.4629 18.8965C42.4694 18.6165 42.4759 18.3626 42.4824 18.1348C42.4954 17.9004 42.5117 17.6628 42.5312 17.4219C42.3294 17.6302 42.1406 17.8092 41.9648 17.959C41.7891 18.1022 41.571 18.2812 41.3105 18.4961L39.6797 19.8047L38.8301 18.7012L42.6973 15.7227H44.0449V30ZM55.4902 30H53.9082V19.8828C53.9082 19.4987 53.9082 19.1699 53.9082 18.8965C53.9147 18.6165 53.9212 18.3626 53.9277 18.1348C53.9408 17.9004 53.957 17.6628 53.9766 17.4219C53.7747 17.6302 53.5859 17.8092 53.4102 17.959C53.2344 18.1022 53.0163 18.2812 52.7559 18.4961L51.125 19.8047L50.2754 18.7012L54.1426 15.7227H55.4902V30ZM72.1309 30H70.5488V19.8828C70.5488 19.4987 70.5488 19.1699 70.5488 18.8965C70.5553 18.6165 70.5618 18.3626 70.5684 18.1348C70.5814 17.9004 70.5977 17.6628 70.6172 17.4219C70.4154 17.6302 70.2266 17.8092 70.0508 17.959C69.875 18.1022 69.6569 18.2812 69.3965 18.4961L67.7656 19.8047L66.916 18.7012L70.7832 15.7227H72.1309V30ZM86.9746 22.8418C86.9746 24.0007 86.8867 25.0358 86.7109 25.9473C86.5352 26.8587 86.2585 27.6302 85.8809 28.2617C85.5033 28.8932 85.015 29.375 84.416 29.707C83.8171 30.0326 83.0977 30.1953 82.2578 30.1953C81.1966 30.1953 80.3177 29.9056 79.6211 29.3262C78.931 28.7467 78.4134 27.9102 78.0684 26.8164C77.7298 25.7161 77.5605 24.3913 77.5605 22.8418C77.5605 21.3184 77.7135 20.0098 78.0195 18.916C78.332 17.8158 78.8333 16.9727 79.5234 16.3867C80.2135 15.7943 81.125 15.498 82.2578 15.498C83.332 15.498 84.2174 15.791 84.9141 16.377C85.6107 16.9564 86.1283 17.7962 86.4668 18.8965C86.8053 19.9902 86.9746 21.3053 86.9746 22.8418ZM79.1914 22.8418C79.1914 24.1699 79.2923 25.2767 79.4941 26.1621C79.696 27.0475 80.0215 27.7116 80.4707 28.1543C80.9264 28.5905 81.5221 28.8086 82.2578 28.8086C82.9935 28.8086 83.5859 28.5905 84.0352 28.1543C84.4909 27.7181 84.8197 27.0573 85.0215 26.1719C85.2298 25.2865 85.334 24.1764 85.334 22.8418C85.334 21.5332 85.2331 20.4395 85.0312 19.5605C84.8294 18.6751 84.5039 18.0111 84.0547 17.5684C83.6055 17.1191 83.0065 16.8945 82.2578 16.8945C81.5091 16.8945 80.9102 17.1191 80.4609 17.5684C80.0117 18.0111 79.6862 18.6751 79.4844 19.5605C79.2891 20.4395 79.1914 21.5332 79.1914 22.8418ZM95.0215 30H93.4395V19.8828C93.4395 19.4987 93.4395 19.1699 93.4395 18.8965C93.446 18.6165 93.4525 18.3626 93.459 18.1348C93.472 17.9004 93.4883 17.6628 93.5078 17.4219C93.306 17.6302 93.1172 17.8092 92.9414 17.959C92.7656 18.1022 92.5475 18.2812 92.2871 18.4961L90.6562 19.8047L89.8066 18.7012L93.6738 15.7227H95.0215V30ZM106.467 30H104.885V19.8828C104.885 19.4987 104.885 19.1699 104.885 18.8965C104.891 18.6165 104.898 18.3626 104.904 18.1348C104.917 17.9004 104.934 17.6628 104.953 17.4219C104.751 17.6302 104.562 17.8092 104.387 17.959C104.211 18.1022 103.993 18.2812 103.732 18.4961L102.102 19.8047L101.252 18.7012L105.119 15.7227H106.467V30ZM123.107 30H121.525V19.8828C121.525 19.4987 121.525 19.1699 121.525 18.8965C121.532 18.6165 121.538 18.3626 121.545 18.1348C121.558 17.9004 121.574 17.6628 121.594 17.4219C121.392 17.6302 121.203 17.8092 121.027 17.959C120.852 18.1022 120.633 18.2812 120.373 18.4961L118.742 19.8047L117.893 18.7012L121.76 15.7227H123.107V30ZM134.553 30H132.971V19.8828C132.971 19.4987 132.971 19.1699 132.971 18.8965C132.977 18.6165 132.984 18.3626 132.99 18.1348C133.003 17.9004 133.02 17.6628 133.039 17.4219C132.837 17.6302 132.648 17.8092 132.473 17.959C132.297 18.1022 132.079 18.2812 131.818 18.4961L130.188 19.8047L129.338 18.7012L133.205 15.7227H134.553V30ZM149.396 22.8418C149.396 24.0007 149.309 25.0358 149.133 25.9473C148.957 26.8587 148.68 27.6302 148.303 28.2617C147.925 28.8932 147.437 29.375 146.838 29.707C146.239 30.0326 145.52 30.1953 144.68 30.1953C143.618 30.1953 142.74 29.9056 142.043 29.3262C141.353 28.7467 140.835 27.9102 140.49 26.8164C140.152 25.7161 139.982 24.3913 139.982 22.8418C139.982 21.3184 140.135 20.0098 140.441 18.916C140.754 17.8158 141.255 16.9727 141.945 16.3867C142.635 15.7943 143.547 15.498 144.68 15.498C145.754 15.498 146.639 15.791 147.336 16.377C148.033 16.9564 148.55 17.7962 148.889 18.8965C149.227 19.9902 149.396 21.3053 149.396 22.8418ZM141.613 22.8418C141.613 24.1699 141.714 25.2767 141.916 26.1621C142.118 27.0475 142.443 27.7116 142.893 28.1543C143.348 28.5905 143.944 28.8086 144.68 28.8086C145.415 28.8086 146.008 28.5905 146.457 28.1543C146.913 27.7181 147.242 27.0573 147.443 26.1719C147.652 25.2865 147.756 24.1764 147.756 22.8418C147.756 21.5332 147.655 20.4395 147.453 19.5605C147.251 18.6751 146.926 18.0111 146.477 17.5684C146.027 17.1191 145.428 16.8945 144.68 16.8945C143.931 16.8945 143.332 17.1191 142.883 17.5684C142.434 18.0111 142.108 18.6751 141.906 19.5605C141.711 20.4395 141.613 21.5332 141.613 22.8418ZM160.842 22.8418C160.842 24.0007 160.754 25.0358 160.578 25.9473C160.402 26.8587 160.126 27.6302 159.748 28.2617C159.37 28.8932 158.882 29.375 158.283 29.707C157.684 30.0326 156.965 30.1953 156.125 30.1953C155.064 30.1953 154.185 29.9056 153.488 29.3262C152.798 28.7467 152.281 27.9102 151.936 26.8164C151.597 25.7161 151.428 24.3913 151.428 22.8418C151.428 21.3184 151.581 20.0098 151.887 18.916C152.199 17.8158 152.701 16.9727 153.391 16.3867C154.081 15.7943 154.992 15.498 156.125 15.498C157.199 15.498 158.085 15.791 158.781 16.377C159.478 16.9564 159.995 17.7962 160.334 18.8965C160.673 19.9902 160.842 21.3053 160.842 22.8418ZM153.059 22.8418C153.059 24.1699 153.16 25.2767 153.361 26.1621C153.563 27.0475 153.889 27.7116 154.338 28.1543C154.794 28.5905 155.389 28.8086 156.125 28.8086C156.861 28.8086 157.453 28.5905 157.902 28.1543C158.358 27.7181 158.687 27.0573 158.889 26.1719C159.097 25.2865 159.201 24.1764 159.201 22.8418C159.201 21.5332 159.1 20.4395 158.898 19.5605C158.697 18.6751 158.371 18.0111 157.922 17.5684C157.473 17.1191 156.874 16.8945 156.125 16.8945C155.376 16.8945 154.777 17.1191 154.328 17.5684C153.879 18.0111 153.553 18.6751 153.352 19.5605C153.156 20.4395 153.059 21.5332 153.059 22.8418Z" fill="white"/>
<rect x="1.5" y="1.5" width="233" height="42" rx="3.5" stroke="#21C421" stroke-width="3"/>
<g clip-path="url(#clip0_70_2)">
<path d="M261.561 13.8663L249.562 27.2364L245.001 22.1538L243.499 23.828L249.562 30.5847L263.064 15.5405L261.561 13.8663Z" fill="#21C421"/>
</g>
<defs>
<clipPath id="clip0_70_2">
<rect width="21" height="18" fill="white" transform="translate(243 13)"/>
</clipPath>
</defs>
</svg>
