<svg width="320" height="273" viewBox="0 0 320 273" fill="none" xmlns="http://www.w3.org/2000/svg">
<g clip-path="url(#clip0_160_12)">
<g opacity="0.771" filter="url(#filter0_f_160_12)">
<path d="M217.166 254.135C217.166 266.451 169.246 273.184 109.365 272.912C38.847 272.591 3.12739 264.209 2.50179 250.932C1.92214 238.63 49.7949 232.475 109.677 232.475C169.56 232.475 217.166 241.819 217.166 254.135Z" fill="#0D0D0D"/>
</g>
<path d="M84.9447 3.26956C59.2747 3.30723 33.8396 3.63332 8.70371 4.32755C2.64078 4.49505 -0.501744 7.15059 -0.475422 9.81228C0.670056 88.299 0.524166 166.808 1.95535 245.29C2.31633 265.085 49.7839 271.65 109.464 271.046C188.54 270.245 215.851 261.741 216.256 249.801L217.681 224.547C217.879 221.167 219.591 218.178 221.371 219.125C226.844 222.036 235.71 225.318 243.547 227.095C250.969 228.778 258.983 229.137 263.533 228.79C307.532 225.437 318.737 168.387 320.207 125.759C321.206 96.7717 312.22 34.3424 272.016 28.1871C259.983 26.3447 241.734 30.3217 226.887 36.1101C223.248 37.5286 222.131 34.5923 221.159 31.6914L221.615 9.81228C221.67 7.15104 216.731 5.16612 210.668 5.00728C172.08 3.99618 133.776 3.33376 95.9602 3.27044C92.2836 3.26416 88.6119 3.26416 84.9447 3.27044V3.26956ZM259.588 47.4587C285.41 47.8343 302.103 77.1726 300.3 126.892C299.798 140.759 301.961 196.242 267.499 207.744C252.945 212.601 240.312 204.807 233.107 194.489C228.349 187.677 227.267 179.192 224.729 174.658C223.584 172.613 220 171.113 218.703 168.225L219.951 89.7358C220.634 88.578 221.422 87.3315 222.304 86.228C224.154 83.9134 226.701 83.4161 227.955 81.6367C231.396 76.7546 231.94 67.4699 236.199 60.1281C240.194 53.2402 247.581 47.284 259.588 47.4587Z" fill="url(#paint0_linear_160_12)"/>
<mask id="mask0_160_12" style="mask-type:luminance" maskUnits="userSpaceOnUse" x="-1" y="3" width="223" height="269">
<path d="M95.9602 3.27038C66.5477 3.22114 37.4305 3.53411 8.70371 4.32749C2.64078 4.49499 -0.501745 7.15053 -0.475422 9.81222C0.670056 88.2989 0.523822 166.808 1.95501 245.29C2.31599 265.085 49.7839 271.65 109.464 271.046C188.54 270.245 215.851 261.741 216.256 249.801L217.195 222.136L221.615 9.81222C221.67 7.15098 216.731 5.16606 210.668 5.00722C172.08 3.99612 133.776 3.3337 95.9602 3.27038Z" fill="white"/>
</mask>
<g mask="url(#mask0_160_12)">
<g filter="url(#filter1_f_160_12)">
<path fill-rule="evenodd" clip-rule="evenodd" d="M-20.1792 4.0484C46.837 10.6986 121.555 17.0013 209.707 5.49106C214.594 4.85302 221.378 7.36259 226.305 6.61091C179.594 -20.4024 71.2346 -45.6701 -20.1792 4.0484Z" fill="url(#paint1_linear_160_12)"/>
</g>
</g>
<mask id="mask1_160_12" style="mask-type:luminance" maskUnits="userSpaceOnUse" x="-1" y="3" width="223" height="269">
<path d="M95.9602 3.27038C66.5477 3.22114 37.4305 3.53411 8.70371 4.32749C2.64078 4.49499 -0.501745 7.15053 -0.475422 9.81222C0.670056 88.2989 0.523822 166.808 1.95501 245.29C2.31599 265.085 49.7839 271.65 109.464 271.046C188.54 270.245 215.851 261.741 216.256 249.801L217.195 222.136L221.615 9.81222C221.67 7.15098 216.731 5.16606 210.668 5.00722C172.08 3.99612 133.776 3.3337 95.9602 3.27038Z" fill="white"/>
</mask>
<g mask="url(#mask1_160_12)">
<g filter="url(#filter2_f_160_12)">
<path d="M221.497 9.07036L217.195 215.73L216.256 243.394C215.851 255.334 188.54 263.839 109.464 264.64C49.7839 265.244 2.31635 258.679 1.95537 238.884C0.558813 162.301 0.660828 85.6922 -0.397573 9.10359C-0.445318 9.33879 -0.47775 9.57517 -0.475406 9.81222C0.670073 88.2989 0.524182 166.808 1.95537 245.29C2.08335 252.308 7.24779 261.122 17.6631 266.04C36.6248 274.993 70.9427 277.325 109.464 276.935C188.54 276.134 215.456 273.395 216.256 249.801L217.195 222.136L221.615 9.81222C221.62 9.55835 221.579 9.3109 221.497 9.07036Z" fill="url(#paint2_radial_160_12)"/>
</g>
</g>
<g filter="url(#filter3_f_160_12)">
<path fill-rule="evenodd" clip-rule="evenodd" d="M27.1417 8.88584C27.1417 8.88584 30.3488 5.60165 31.4547 5.14864C32.5606 4.69566 63.1942 6.28113 63.1942 6.28113L59.8765 10.8111L27.1417 8.88584Z" fill="white"/>
</g>
<g opacity="0.865" filter="url(#filter4_f_160_12)">
<path fill-rule="evenodd" clip-rule="evenodd" d="M25.6202 10.2723L29.1322 251.239L51.6927 254.863L56.1163 12.0569L25.6202 10.2723Z" fill="url(#paint3_linear_160_12)"/>
</g>
<mask id="mask2_160_12" style="mask-type:luminance" maskUnits="userSpaceOnUse" x="-1" y="3" width="322" height="269">
<path d="M84.9447 3.26956C59.2747 3.30723 33.8396 3.63332 8.70371 4.32755C2.64078 4.49505 -0.501744 7.15059 -0.475422 9.81228C0.670056 88.299 0.524166 166.808 1.95535 245.29C2.31633 265.085 49.7839 271.65 109.464 271.046C188.54 270.245 215.851 261.741 216.256 249.801L217.681 224.547C217.879 221.167 219.591 218.178 221.371 219.125C226.844 222.036 235.71 225.318 243.547 227.095C250.969 228.778 258.983 229.137 263.533 228.79C307.532 225.437 318.737 168.387 320.207 125.759C321.206 96.7717 312.22 34.3424 272.016 28.1871C259.983 26.3447 241.734 30.3217 226.887 36.1101C223.248 37.5286 222.131 34.5923 221.159 31.6914L221.615 9.81228C221.67 7.15104 216.731 5.16612 210.668 5.00728C172.08 3.99618 133.776 3.33376 95.9602 3.27044C92.2836 3.26416 88.6119 3.26416 84.9447 3.27044V3.26956ZM259.588 47.4587C285.41 47.8343 302.103 77.1726 300.3 126.892C299.798 140.759 301.961 196.242 267.499 207.744C252.945 212.601 240.312 204.807 233.107 194.489C228.349 187.677 227.267 179.192 224.729 174.658C223.584 172.613 220 171.113 218.703 168.225L219.951 89.7358C220.634 88.578 221.422 87.3315 222.304 86.228C224.154 83.9134 226.701 83.4161 227.955 81.6367C231.396 76.7546 231.94 67.4699 236.199 60.1281C240.194 53.2402 247.581 47.284 259.588 47.4587Z" fill="white"/>
</mask>
<g mask="url(#mask2_160_12)">
<g filter="url(#filter5_f_160_12)">
<path fill-rule="evenodd" clip-rule="evenodd" d="M165.38 -17.9247C197.393 -25.2098 187.458 208.784 182.19 223.975C177.709 236.895 177.766 254.779 165.38 261.121C152.994 267.463 117.605 282.865 117.605 282.865L262.699 300.984L364.443 233.941L372.405 120.692L350.287 -1.61685C350.287 -1.61685 287.472 -27.8906 282.163 -29.7026C276.855 -31.5146 224.656 -46.9164 224.656 -46.9164L165.38 -17.9247Z" fill="url(#paint4_linear_160_12)"/>
</g>
</g>
<mask id="mask3_160_12" style="mask-type:luminance" maskUnits="userSpaceOnUse" x="-1" y="3" width="322" height="269">
<path d="M84.9447 3.26956C59.2747 3.30723 33.8396 3.63332 8.70371 4.32755C2.64078 4.49505 -0.501744 7.15059 -0.475422 9.81228C0.670056 88.299 0.524166 166.808 1.95535 245.29C2.31633 265.085 49.7839 271.65 109.464 271.046C188.54 270.245 215.851 261.741 216.256 249.801L217.681 224.547C217.879 221.167 219.592 218.178 221.371 219.125C226.844 222.036 235.71 225.318 243.547 227.095C250.969 228.778 258.983 229.137 263.533 228.79C307.532 225.437 318.737 168.387 320.207 125.759C321.206 96.7717 312.22 34.3424 272.016 28.1871C259.983 26.3447 241.734 30.3217 226.887 36.1101C223.248 37.5286 222.131 34.5923 221.159 31.6914L221.615 9.81228C221.67 7.15104 216.731 5.16612 210.668 5.00728C172.08 3.99618 133.776 3.33376 95.9602 3.27044C92.2837 3.26416 88.6119 3.26416 84.9447 3.27044V3.26956ZM259.588 47.4587C285.41 47.8343 302.103 77.1726 300.3 126.892C299.798 140.759 301.961 196.242 267.499 207.744C252.945 212.601 240.312 204.807 233.107 194.489C228.349 187.677 227.267 179.192 224.729 174.658C223.584 172.613 220 171.113 218.703 168.225L219.951 89.7358C220.634 88.578 221.422 87.3315 222.304 86.228C224.154 83.9134 226.701 83.4161 227.955 81.6367C231.396 76.7546 231.94 67.4699 236.199 60.1281C240.194 53.2402 247.581 47.284 259.588 47.4587Z" fill="white"/>
</mask>
<g mask="url(#mask3_160_12)">
<g filter="url(#filter6_f_160_12)">
<path fill-rule="evenodd" clip-rule="evenodd" d="M220.012 40.3691C219.061 53.3383 220.399 64.8457 220.858 77.5261C220.858 79.6072 223.583 83.9826 226.704 79.5542C230.145 74.6721 228.656 64.4272 232.914 57.0853C236.909 50.1974 246.642 43.9209 258.649 44.0956C284.472 44.4712 303.041 77.0119 301.239 126.731C300.736 140.598 301.648 198.164 267.186 209.665C252.632 214.523 237.966 209.611 230.761 199.294C226.003 192.481 227.033 181.915 224.494 177.38C222.412 173.661 219.071 176.546 219.348 178.819L219.127 216.131C219.485 219.093 232.222 223.994 244.486 226.775C251.908 228.458 260.547 228.176 265.097 227.829C309.096 224.476 315.453 168.226 316.922 125.599C317.921 96.611 309.248 37.7058 271.547 31.8708C268.385 31.3814 264.04 28.3472 260.249 28.513C249.615 28.9778 237.182 31.9776 226.731 37.3909C224.277 38.6621 220.241 37.3273 220.012 40.3691Z" fill="url(#paint5_linear_160_12)"/>
</g>
</g>
<g opacity="0.581" filter="url(#filter7_f_160_12)">
<path fill-rule="evenodd" clip-rule="evenodd" d="M217.542 39.6222C217.666 52.4221 217.475 64.8857 217.332 77.4005C217.323 79.4545 216.422 84.7212 215.847 80.3506C215.213 75.5322 215.15 66.3695 214.371 59.1235C213.64 52.3255 212.259 46.4471 209.971 46.6195C205.049 46.9901 201.74 75.9447 201.865 125.015C201.9 138.701 201.244 193.46 207.76 204.811C210.511 209.605 212.952 201.913 214.37 191.73C215.307 185.007 215.55 176.633 216.054 172.158C216.467 168.486 217.132 171.966 217.07 174.21L216.939 213.09C216.858 216.013 214.587 221.165 212.238 223.91C210.816 225.571 209.288 225.925 208.423 225.583C200.055 222.274 198.17 165.968 198.077 123.897C198.014 95.2879 200 33.6743 207.687 27.5993C209.988 25.781 213.582 28.171 216.251 35.4183C216.713 36.6729 217.512 36.6201 217.542 39.6222Z" fill="#98999B"/>
</g>
<g opacity="0.474" filter="url(#filter8_f_160_12)">
<path fill-rule="evenodd" clip-rule="evenodd" d="M209.4 28.8747C209.384 28.8931 209.384 28.8886 209.367 28.9115C209.218 29.1168 209.028 29.4723 208.843 29.8555C208.657 30.2388 208.471 30.6527 208.285 31.0159C208.098 31.3792 207.975 31.6749 207.626 31.9478C206.911 32.5076 206.062 33.9724 205.33 36.1166C204.598 38.2607 203.935 41.0815 203.346 44.4016C202.168 51.0416 201.278 59.6842 200.623 69.0385C199.313 87.7472 198.94 109.311 199.037 123.526C199.18 144.445 199.56 168.705 200.97 188.128C201.674 197.84 202.638 206.344 203.95 212.596C204.607 215.722 205.352 218.286 206.178 220.135C207.004 221.984 207.945 223.068 208.705 223.36C209.066 223.5 209.586 223.621 210.132 223.548C210.677 223.475 211.282 223.231 211.917 222.502C214.205 219.878 216.643 215.026 216.706 212.388L216.668 181.262C216.519 186.084 216.365 191.523 215.756 195.94C215.051 201.039 214.02 204.796 212.673 206.833C212.336 207.343 211.977 207.752 211.552 208.045C211.127 208.339 210.602 208.514 210.068 208.467C209 208.373 208.199 207.577 207.451 206.315C205.676 203.319 204.47 197.669 203.541 190.548C202.613 183.427 202.004 174.869 201.602 166.241C200.797 148.985 200.817 131.444 200.768 124.644C200.593 100.228 201.407 80.0284 202.894 65.8655C203.637 58.7841 204.547 53.2152 205.597 49.3577C206.122 47.429 206.679 45.9306 207.296 44.857C207.605 44.3202 207.928 43.8872 208.302 43.5573C208.676 43.2274 209.126 42.9914 209.636 42.9539C210.554 42.8863 211.309 43.4323 211.888 44.1704C212.467 44.9084 212.955 45.9131 213.397 47.1262C214.28 49.5523 214.947 52.8085 215.338 56.2178C216.069 62.5895 215.976 70.9211 216.372 76.0843C216.463 63.7345 216.717 52.5036 216.534 39.872C216.523 39.1478 216.464 38.7025 216.397 38.4576C216.33 38.2126 216.29 38.1992 216.264 38.1791C216.238 38.1589 216.105 38.1135 215.872 37.9496C215.639 37.7857 215.411 37.5069 215.264 37.122C214.263 34.4995 213.169 32.4758 212.101 31.0799C211.106 29.779 210.147 29.1044 209.4 28.8747Z" fill="url(#paint6_radial_160_12)"/>
</g>
<g filter="url(#filter9_f_160_12)">
<path fill-rule="evenodd" clip-rule="evenodd" d="M221.781 44.8991C221.781 44.8991 222.002 49.0892 222.334 49.429C222.666 49.7688 223.219 49.4291 224.103 48.976C224.988 48.5231 226.205 48.2965 227.532 47.5038C228.859 46.711 235.715 42.0678 239.144 40.8221C242.572 39.5763 247.327 37.8776 249.318 37.5379C251.309 37.1981 252.636 37.4246 252.857 36.8584C253.078 36.2921 253.742 35.0464 251.972 35.4994C250.203 35.9524 247.77 35.4994 244.894 36.4054C242.019 37.3114 234.167 39.3499 233.504 39.8028C232.84 40.2558 229.744 42.1811 227.863 42.7473C225.983 43.3136 224.325 42.9739 224.214 43.7666C224.103 44.5593 224.656 46.4846 224.325 46.7111C223.993 46.9376 222.887 46.5978 222.887 45.805C222.887 45.0123 222.555 44.3328 222.555 44.3328L221.781 44.8991Z" fill="#FCFCFA"/>
</g>
<g filter="url(#filter10_f_160_12)">
<path fill-rule="evenodd" clip-rule="evenodd" d="M253.675 217.379C255.002 218.405 257.754 218.451 259.599 218.736C264.169 219.442 267.975 219.16 271.235 218.172C277.788 216.186 282.137 211.348 286.053 205.951C287.41 204.081 288.715 202.144 290.042 200.235C291.182 198.595 293.745 196.815 293.556 195.437C286.229 201.159 281.961 208.877 273.193 213.496C270.719 214.799 266.081 216.548 261.746 217.112C257.728 217.635 253.915 217.006 253.675 217.379Z" fill="#FCFEFC"/>
</g>
<g opacity="0.865" filter="url(#filter11_f_160_12)">
<path fill-rule="evenodd" clip-rule="evenodd" d="M27.0393 74.6037L27.9706 127.543L28.3712 127.281C28.3712 127.281 28.3154 77.4972 27.731 75.8912C27.6056 75.5466 27.3529 75.0952 27.0393 74.6037Z" fill="url(#paint7_linear_160_12)"/>
</g>
<g filter="url(#filter12_f_160_12)">
<path fill-rule="evenodd" clip-rule="evenodd" d="M8.59814 247.809L22.0484 238.52C68.1095 262.798 129.524 260.323 181.888 257.419C156.816 262.803 40.3084 270.167 8.59814 247.809Z" fill="url(#paint8_radial_160_12)"/>
</g>
<g opacity="0.771" filter="url(#filter13_f_160_12)">
<path fill-rule="evenodd" clip-rule="evenodd" d="M38.0116 257.298C37.4515 257.584 37.1927 257.783 36.8604 258.004C46.1522 259.837 56.6682 261.09 67.7138 261.887C67.6592 261.293 66.3888 261.57 65.7577 261.388C56.7151 260.37 47.3864 259.554 38.0116 257.298ZM69.5304 261.828L69.456 262.006C70.0016 262.043 70.546 262.08 71.0939 262.115L71.1162 261.908C70.5874 261.881 70.0592 261.855 69.5304 261.828Z" fill="white"/>
</g>
<path fill-rule="evenodd" clip-rule="evenodd" d="M145.386 112.602C145.23 112.668 145.191 115.655 145.201 126.807C145.208 134.573 145.273 141.525 145.345 142.254C145.793 146.76 147.554 150.745 150.429 153.758C151.581 154.965 153.354 156.365 154.227 156.758C154.434 156.851 154.71 156.996 154.841 157.08C154.972 157.164 155.363 157.354 155.711 157.503C156.059 157.652 156.466 157.843 156.616 157.929C156.765 158.015 157.192 158.167 157.565 158.267C157.938 158.367 158.67 158.563 159.193 158.703C159.715 158.842 160.783 159.025 161.566 159.109C162.35 159.193 163.294 159.333 163.665 159.421C164.542 159.629 166.846 159.626 167.966 159.416C168.449 159.325 169.451 159.182 170.19 159.098C171.917 158.903 174.521 158.238 174.851 157.908C174.933 157.825 175.093 157.757 175.206 157.757C175.319 157.757 175.892 157.519 176.48 157.229C180.546 155.216 183.81 151.244 185.2 146.619C186.356 142.772 186.366 142.616 186.442 126.946C186.502 114.686 186.484 113.254 186.258 112.893L186.007 112.492H180.265C175.919 112.492 174.459 112.543 174.257 112.699C174.012 112.89 173.987 113.979 173.942 126.337C173.894 139.424 173.796 142.17 173.358 142.752C173.29 142.843 173.184 143.16 173.124 143.457C173.063 143.753 172.956 143.995 172.885 143.995C172.814 143.995 172.71 144.188 172.654 144.424C172.529 144.947 172.389 145.14 171.361 146.217C170.282 147.349 170.248 147.372 169.075 147.806C168.402 148.054 167.536 148.211 166.533 148.266C161.776 148.525 159.1 146.402 158.142 141.608C157.869 140.237 157.848 139.162 157.848 126.586C157.848 113.674 157.834 113.028 157.558 112.767C157.299 112.521 156.652 112.493 151.426 112.505C148.213 112.512 145.495 112.556 145.386 112.602ZM36.4215 112.961C36.1805 113.24 36.1596 115.058 36.1596 135.728C36.1596 153.437 36.2015 158.251 36.3574 158.474C36.5388 158.733 37.0606 158.753 42.6475 158.713L48.7398 158.669L48.78 135.798C48.8118 117.611 48.7794 112.9 48.6218 112.795C48.5126 112.722 45.7818 112.662 42.5534 112.66C37.0659 112.658 36.6663 112.678 36.4215 112.961ZM54.2895 112.918C54.0748 113.144 54.0409 113.843 54.0409 118.053V122.926L54.3949 123.125C54.6513 123.269 56.6331 123.333 61.5767 123.358C65.332 123.377 68.4838 123.444 68.5808 123.507C68.709 123.589 68.7574 128.415 68.7574 141.086C68.7574 156.859 68.7816 158.561 69.0078 158.652C69.1454 158.707 71.92 158.752 75.1736 158.752C80.8602 158.752 81.0955 158.74 81.253 158.432C81.3628 158.216 81.4168 152.411 81.4168 140.784C81.4168 124.426 81.4323 123.453 81.6937 123.373C81.8459 123.326 84.9467 123.307 88.584 123.331C93.98 123.366 95.2542 123.332 95.5071 123.147C95.8025 122.93 95.8168 122.696 95.8168 118.049C95.8168 113.843 95.7829 113.144 95.5682 112.918C95.3446 112.684 93.2548 112.658 74.9289 112.658C56.6029 112.658 54.5131 112.684 54.2895 112.918ZM101.039 112.812C100.83 112.958 100.796 115.707 100.76 135.602C100.723 156.05 100.743 158.253 100.969 158.49C101.189 158.72 101.954 158.752 107.182 158.75C110.461 158.748 113.232 158.689 113.34 158.617C113.488 158.518 113.546 157.074 113.577 152.692L113.619 146.897L118.762 146.801C121.59 146.748 124.545 146.615 125.328 146.504C129.75 145.882 134.405 143.577 136.643 140.903C137.779 139.546 138.542 138.459 138.542 138.199C138.542 138.104 138.599 138.026 138.67 138.026C138.74 138.026 138.927 137.709 139.084 137.322C139.242 136.934 139.473 136.393 139.597 136.12C139.722 135.846 139.887 135.361 139.965 135.042C140.043 134.723 140.18 134.163 140.269 133.798C140.533 132.72 140.649 128.953 140.468 127.332C140.258 125.448 139.197 122.049 138.682 121.612C138.629 121.566 138.535 121.361 138.474 121.156C138.412 120.95 138.296 120.782 138.215 120.782C138.134 120.782 138.067 120.668 138.067 120.529C138.067 120.389 137.961 120.232 137.83 120.179C137.699 120.127 137.593 119.994 137.593 119.885C137.593 119.671 135.604 117.556 134.823 116.941C134.562 116.734 134.313 116.522 134.27 116.469C134.102 116.263 132.527 115.32 131.653 114.901C130.397 114.299 129.646 114.024 128.256 113.657C124.776 112.739 125.382 112.777 112.907 112.71C105.349 112.669 101.193 112.705 101.039 112.812ZM113.736 123.408C113.579 123.512 113.545 124.908 113.578 129.83L113.619 136.12H118.208C122.362 136.12 122.887 136.088 123.746 135.79C125.467 135.194 126.789 133.872 127.481 132.057C127.622 131.688 127.702 130.843 127.701 129.736C127.7 128.094 127.669 127.932 127.17 126.886C126.135 124.721 124.683 123.764 121.96 123.455C120.096 123.243 114.035 123.208 113.736 123.408Z" fill="#474248"/>
<ellipse cx="42.533" cy="100.868" rx="6.01415" ry="6.24546" fill="#00C3DB"/>
</g>
<defs>
<filter id="filter0_f_160_12" x="-9.78326" y="220.195" width="239.229" height="65.0042" filterUnits="userSpaceOnUse" color-interpolation-filters="sRGB">
<feFlood flood-opacity="0" result="BackgroundImageFix"/>
<feBlend mode="normal" in="SourceGraphic" in2="BackgroundImageFix" result="shape"/>
<feGaussianBlur stdDeviation="6.13992" result="effect1_foregroundBlur_160_12"/>
</filter>
<filter id="filter1_f_160_12" x="-24.6502" y="-28.8136" width="255.426" height="45.1558" filterUnits="userSpaceOnUse" color-interpolation-filters="sRGB">
<feFlood flood-opacity="0" result="BackgroundImageFix"/>
<feBlend mode="normal" in="SourceGraphic" in2="BackgroundImageFix" result="shape"/>
<feGaussianBlur stdDeviation="2.23552" result="effect1_foregroundBlur_160_12"/>
</filter>
<filter id="filter2_f_160_12" x="-15.8219" y="-6.27601" width="252.783" height="298.598" filterUnits="userSpaceOnUse" color-interpolation-filters="sRGB">
<feFlood flood-opacity="0" result="BackgroundImageFix"/>
<feBlend mode="normal" in="SourceGraphic" in2="BackgroundImageFix" result="shape"/>
<feGaussianBlur stdDeviation="7.67318" result="effect1_foregroundBlur_160_12"/>
</filter>
<filter id="filter3_f_160_12" x="25.159" y="3.08458" width="40.0178" height="9.7092" filterUnits="userSpaceOnUse" color-interpolation-filters="sRGB">
<feFlood flood-opacity="0" result="BackgroundImageFix"/>
<feBlend mode="normal" in="SourceGraphic" in2="BackgroundImageFix" result="shape"/>
<feGaussianBlur stdDeviation="0.991334" result="effect1_foregroundBlur_160_12"/>
</filter>
<filter id="filter4_f_160_12" x="21.3475" y="5.99965" width="39.0415" height="253.136" filterUnits="userSpaceOnUse" color-interpolation-filters="sRGB">
<feFlood flood-opacity="0" result="BackgroundImageFix"/>
<feBlend mode="normal" in="SourceGraphic" in2="BackgroundImageFix" result="shape"/>
<feGaussianBlur stdDeviation="2.13635" result="effect1_foregroundBlur_160_12"/>
</filter>
<filter id="filter5_f_160_12" x="98.7421" y="-65.779" width="292.526" height="385.626" filterUnits="userSpaceOnUse" color-interpolation-filters="sRGB">
<feFlood flood-opacity="0" result="BackgroundImageFix"/>
<feBlend mode="normal" in="SourceGraphic" in2="BackgroundImageFix" result="shape"/>
<feGaussianBlur stdDeviation="9.43127" result="effect1_foregroundBlur_160_12"/>
</filter>
<filter id="filter6_f_160_12" x="205.194" y="14.5735" width="125.736" height="227.452" filterUnits="userSpaceOnUse" color-interpolation-filters="sRGB">
<feFlood flood-opacity="0" result="BackgroundImageFix"/>
<feBlend mode="normal" in="SourceGraphic" in2="BackgroundImageFix" result="shape"/>
<feGaussianBlur stdDeviation="6.96647" result="effect1_foregroundBlur_160_12"/>
</filter>
<filter id="filter7_f_160_12" x="191.301" y="20.242" width="33.055" height="212.234" filterUnits="userSpaceOnUse" color-interpolation-filters="sRGB">
<feFlood flood-opacity="0" result="BackgroundImageFix"/>
<feBlend mode="normal" in="SourceGraphic" in2="BackgroundImageFix" result="shape"/>
<feGaussianBlur stdDeviation="3.38724" result="effect1_foregroundBlur_160_12"/>
</filter>
<filter id="filter8_f_160_12" x="195.726" y="25.5782" width="24.2759" height="201.288" filterUnits="userSpaceOnUse" color-interpolation-filters="sRGB">
<feFlood flood-opacity="0" result="BackgroundImageFix"/>
<feBlend mode="normal" in="SourceGraphic" in2="BackgroundImageFix" result="shape"/>
<feGaussianBlur stdDeviation="1.64826" result="effect1_foregroundBlur_160_12"/>
</filter>
<filter id="filter9_f_160_12" x="220.346" y="33.9677" width="34.2514" height="17.0339" filterUnits="userSpaceOnUse" color-interpolation-filters="sRGB">
<feFlood flood-opacity="0" result="BackgroundImageFix"/>
<feBlend mode="normal" in="SourceGraphic" in2="BackgroundImageFix" result="shape"/>
<feGaussianBlur stdDeviation="0.717255" result="effect1_foregroundBlur_160_12"/>
</filter>
<filter id="filter10_f_160_12" x="251.675" y="193.438" width="43.8908" height="27.6902" filterUnits="userSpaceOnUse" color-interpolation-filters="sRGB">
<feFlood flood-opacity="0" result="BackgroundImageFix"/>
<feBlend mode="normal" in="SourceGraphic" in2="BackgroundImageFix" result="shape"/>
<feGaussianBlur stdDeviation="0.999805" result="effect1_foregroundBlur_160_12"/>
</filter>
<filter id="filter11_f_160_12" x="26.3806" y="73.945" width="2.64939" height="54.2563" filterUnits="userSpaceOnUse" color-interpolation-filters="sRGB">
<feFlood flood-opacity="0" result="BackgroundImageFix"/>
<feBlend mode="normal" in="SourceGraphic" in2="BackgroundImageFix" result="shape"/>
<feGaussianBlur stdDeviation="0.32937" result="effect1_foregroundBlur_160_12"/>
</filter>
<filter id="filter12_f_160_12" x="7.0338" y="236.956" width="176.418" height="27.6432" filterUnits="userSpaceOnUse" color-interpolation-filters="sRGB">
<feFlood flood-opacity="0" result="BackgroundImageFix"/>
<feBlend mode="normal" in="SourceGraphic" in2="BackgroundImageFix" result="shape"/>
<feGaussianBlur stdDeviation="0.782174" result="effect1_foregroundBlur_160_12"/>
</filter>
<filter id="filter13_f_160_12" x="35.296" y="255.733" width="37.3845" height="7.94596" filterUnits="userSpaceOnUse" color-interpolation-filters="sRGB">
<feFlood flood-opacity="0" result="BackgroundImageFix"/>
<feBlend mode="normal" in="SourceGraphic" in2="BackgroundImageFix" result="shape"/>
<feGaussianBlur stdDeviation="0.782174" result="effect1_foregroundBlur_160_12"/>
</filter>
<linearGradient id="paint0_linear_160_12" x1="-0.0573114" y1="162.605" x2="207.537" y2="162.605" gradientUnits="userSpaceOnUse">
<stop stop-color="#C2C5CA"/>
<stop offset="0.281468" stop-color="#E5E8ED"/>
<stop offset="0.541627" stop-color="#E6E9EE"/>
<stop offset="0.774124" stop-color="#CDD1D4"/>
<stop offset="1" stop-color="#929395"/>
</linearGradient>
<linearGradient id="paint1_linear_160_12" x1="109.319" y1="1.80617" x2="109.647" y2="13.9778" gradientUnits="userSpaceOnUse">
<stop stop-color="#F4F6F9"/>
<stop offset="1" stop-color="#F4F6F9" stop-opacity="0"/>
</linearGradient>
<radialGradient id="paint2_radial_160_12" cx="0" cy="0" r="1" gradientUnits="userSpaceOnUse" gradientTransform="translate(103.063 261.54) rotate(-0.628351) scale(116.85 59.8208)">
<stop stop-color="#909291" stop-opacity="0.25"/>
<stop offset="1" stop-color="#909291" stop-opacity="0.986486"/>
</radialGradient>
<linearGradient id="paint3_linear_160_12" x1="39.2522" y1="30.6347" x2="39.2522" y2="248.45" gradientUnits="userSpaceOnUse">
<stop stop-color="#F0F1F5"/>
<stop offset="1" stop-color="#F0F1F5" stop-opacity="0"/>
</linearGradient>
<linearGradient id="paint4_linear_160_12" x1="307.82" y1="90.7943" x2="174.934" y2="90.7943" gradientUnits="userSpaceOnUse">
<stop stop-color="#666867"/>
<stop offset="1" stop-color="#666867" stop-opacity="0"/>
</linearGradient>
<linearGradient id="paint5_linear_160_12" x1="226.931" y1="60.1037" x2="305.894" y2="75.4033" gradientUnits="userSpaceOnUse">
<stop stop-color="#E4E7EC"/>
<stop offset="1" stop-color="#E8EBF0"/>
</linearGradient>
<radialGradient id="paint6_radial_160_12" cx="0" cy="0" r="1" gradientUnits="userSpaceOnUse" gradientTransform="translate(202.234 126.222) rotate(-1.47539) scale(31.489 201.009)">
<stop stop-color="#B5B6B8" stop-opacity="0"/>
<stop offset="1" stop-color="#B5B6B8"/>
</radialGradient>
<linearGradient id="paint7_linear_160_12" x1="27.5224" y1="104.628" x2="30.1481" y2="142.169" gradientUnits="userSpaceOnUse">
<stop stop-color="#FFFFFA"/>
<stop offset="1" stop-color="#FFFFFA" stop-opacity="0"/>
</linearGradient>
<radialGradient id="paint8_radial_160_12" cx="0" cy="0" r="1" gradientUnits="userSpaceOnUse" gradientTransform="translate(65.6047 247.153) scale(87.8282 13.4691)">
<stop stop-color="#DEE1EA"/>
<stop offset="1" stop-color="#DEE1EA" stop-opacity="0"/>
</radialGradient>
<clipPath id="clip0_160_12">
<rect width="320" height="273" fill="white"/>
</clipPath>
</defs>
</svg>
