<svg width="135" height="100" viewBox="0 0 135 100" fill="none" xmlns="http://www.w3.org/2000/svg">
<g clip-path="url(#clip0_107_50)">
<path d="M56.8636 24.3761C63.5224 24.3761 68.9203 19.1404 68.9203 12.6817C68.9203 6.22307 63.5224 0.987305 56.8636 0.987305C50.2049 0.987305 44.8069 6.22307 44.8069 12.6817C44.8069 19.1404 50.2049 24.3761 56.8636 24.3761Z" fill="white"/>
<path d="M46.9534 49.6693C50.9694 52.3832 55.735 53.7382 61.2076 53.7382C64.193 53.7382 73.6348 51.7471 75.8835 51.0449C78.426 50.198 79.6951 49.0083 80.4574 47.5543C81.3986 45.1088 80.9472 42.5271 80.9472 42.5271C80.1849 37.9418 75.5683 36.9009 71.9824 38.1608C66.6291 40.0155 59.3252 41.6141 54.9173 38.6813C53.052 37.442 51.8808 35.5088 51.1483 33.6334C52.2471 30.1139 51.5401 26.1483 48.9039 23.1328C44.7771 18.4236 37.9332 18.4154 32.6438 21.8563C23.564 27.7634 16.5157 48.7151 16.5157 60.5086C16.5582 60.5169 16.1537 66.2835 22.8102 66.8412C24.8076 66.9403 42.2857 66.899 47.7881 66.8825C47.8094 66.9775 47.8392 67.1551 47.8392 67.4484C47.8179 72.3311 47.8435 90.0854 47.8562 98.3264C47.8605 100.656 49.8153 102.544 52.2258 102.544H56.5527C57.7154 102.544 58.8269 102.11 59.6446 101.301C60.4623 100.503 60.9223 99.4294 60.9223 98.2975C60.9095 90.0689 60.8839 72.3517 60.901 67.4939C60.9393 58.8563 54.155 54.8452 49.5853 54.2628L48.6995 54.2008C46.0846 54.2091 42.9671 54.2173 39.8326 54.2256C40.5481 50.9003 41.6 48.1491 42.7031 45.9226C43.8913 47.2734 45.2924 48.5416 46.9534 49.6693Z" fill="white"/>
<path d="M13.0788 13.8345C13.0788 10.3316 10.1487 7.4978 6.54153 7.4978C2.93006 7.4978 0 10.3357 0 13.8345V77.1975C0 80.465 2.55954 83.15 5.83883 83.4805C5.84309 83.5011 5.8516 83.5094 5.86012 83.5094H8.20247V98.3226C8.20247 100.648 10.1232 102.544 12.5252 102.544C14.9314 102.544 16.8479 100.657 16.8479 98.3226V83.5094H30.5953V98.3226C30.5953 100.648 32.516 102.544 34.9222 102.544C37.3242 102.544 39.2449 100.657 39.2449 98.3226V83.5094H43.4569V70.8277H13.0788V13.8345Z" fill="white"/>
<path d="M130.699 55.9854C129.702 50.9995 126.406 46.7985 121.917 44.4976V40.4989H128.122V12.624L104.413 4.37886V0.293457H95.7636V42.6593H104.413V40.5072H108.847V43.3822C102.974 45.1957 98.5063 50.0164 97.3095 55.9896H69.6784C67.2722 55.9896 65.3216 57.96 65.3216 60.2898C65.3216 62.6237 67.2722 64.59 69.6784 64.59H78.4643V102.656H126.35V64.59H130.639C133.041 64.59 134.996 62.6237 134.996 60.2898C135.013 57.9724 133.088 56.0102 130.699 55.9854Z" fill="white"/>
</g>
<defs>
<clipPath id="clip0_107_50">
<rect width="135" height="100" fill="white"/>
</clipPath>
</defs>
</svg>
