<svg width="260" height="45" viewBox="0 0 260 45" fill="none" xmlns="http://www.w3.org/2000/svg">
<path d="M19.877 30H18.2949V19.8828C18.2949 19.4987 18.2949 19.1699 18.2949 18.8965C18.3014 18.6165 18.3079 18.3626 18.3145 18.1348C18.3275 17.9004 18.3438 17.6628 18.3633 17.4219C18.1615 17.6302 17.9727 17.8092 17.7969 17.959C17.6211 18.1022 17.403 18.2812 17.1426 18.4961L15.5117 19.8047L14.6621 18.7012L18.5293 15.7227H19.877V30ZM31.3223 30H29.7402V19.8828C29.7402 19.4987 29.7402 19.1699 29.7402 18.8965C29.7467 18.6165 29.7533 18.3626 29.7598 18.1348C29.7728 17.9004 29.7891 17.6628 29.8086 17.4219C29.6068 17.6302 29.418 17.8092 29.2422 17.959C29.0664 18.1022 28.8483 18.2812 28.5879 18.4961L26.957 19.8047L26.1074 18.7012L29.9746 15.7227H31.3223V30ZM42.7676 30H41.1855V19.8828C41.1855 19.4987 41.1855 19.1699 41.1855 18.8965C41.1921 18.6165 41.1986 18.3626 41.2051 18.1348C41.2181 17.9004 41.2344 17.6628 41.2539 17.4219C41.0521 17.6302 40.8633 17.8092 40.6875 17.959C40.5117 18.1022 40.2936 18.2812 40.0332 18.4961L38.4023 19.8047L37.5527 18.7012L41.4199 15.7227H42.7676V30ZM62.8066 22.8418C62.8066 24.0007 62.7188 25.0358 62.543 25.9473C62.3672 26.8587 62.0905 27.6302 61.7129 28.2617C61.3353 28.8932 60.847 29.375 60.248 29.707C59.6491 30.0326 58.9297 30.1953 58.0898 30.1953C57.0286 30.1953 56.1497 29.9056 55.4531 29.3262C54.763 28.7467 54.2454 27.9102 53.9004 26.8164C53.5618 25.7161 53.3926 24.3913 53.3926 22.8418C53.3926 21.3184 53.5456 20.0098 53.8516 18.916C54.1641 17.8158 54.6654 16.9727 55.3555 16.3867C56.0456 15.7943 56.957 15.498 58.0898 15.498C59.1641 15.498 60.0495 15.791 60.7461 16.377C61.4427 16.9564 61.9603 17.7962 62.2988 18.8965C62.6374 19.9902 62.8066 21.3053 62.8066 22.8418ZM55.0234 22.8418C55.0234 24.1699 55.1243 25.2767 55.3262 26.1621C55.528 27.0475 55.8535 27.7116 56.3027 28.1543C56.7585 28.5905 57.3542 28.8086 58.0898 28.8086C58.8255 28.8086 59.418 28.5905 59.8672 28.1543C60.3229 27.7181 60.6517 27.0573 60.8535 26.1719C61.0618 25.2865 61.166 24.1764 61.166 22.8418C61.166 21.5332 61.0651 20.4395 60.8633 19.5605C60.6615 18.6751 60.3359 18.0111 59.8867 17.5684C59.4375 17.1191 58.8385 16.8945 58.0898 16.8945C57.3411 16.8945 56.7422 17.1191 56.293 17.5684C55.8438 18.0111 55.5182 18.6751 55.3164 19.5605C55.1211 20.4395 55.0234 21.5332 55.0234 22.8418ZM74.252 22.8418C74.252 24.0007 74.1641 25.0358 73.9883 25.9473C73.8125 26.8587 73.5358 27.6302 73.1582 28.2617C72.7806 28.8932 72.2923 29.375 71.6934 29.707C71.0944 30.0326 70.375 30.1953 69.5352 30.1953C68.474 30.1953 67.5951 29.9056 66.8984 29.3262C66.2083 28.7467 65.6908 27.9102 65.3457 26.8164C65.0072 25.7161 64.8379 24.3913 64.8379 22.8418C64.8379 21.3184 64.9909 20.0098 65.2969 18.916C65.6094 17.8158 66.1107 16.9727 66.8008 16.3867C67.4909 15.7943 68.4023 15.498 69.5352 15.498C70.6094 15.498 71.4948 15.791 72.1914 16.377C72.888 16.9564 73.4056 17.7962 73.7441 18.8965C74.0827 19.9902 74.252 21.3053 74.252 22.8418ZM66.4688 22.8418C66.4688 24.1699 66.5697 25.2767 66.7715 26.1621C66.9733 27.0475 67.2988 27.7116 67.748 28.1543C68.2038 28.5905 68.7995 28.8086 69.5352 28.8086C70.2708 28.8086 70.8633 28.5905 71.3125 28.1543C71.7682 27.7181 72.097 27.0573 72.2988 26.1719C72.5072 25.2865 72.6113 24.1764 72.6113 22.8418C72.6113 21.5332 72.5104 20.4395 72.3086 19.5605C72.1068 18.6751 71.7812 18.0111 71.332 17.5684C70.8828 17.1191 70.2839 16.8945 69.5352 16.8945C68.7865 16.8945 68.1875 17.1191 67.7383 17.5684C67.2891 18.0111 66.9635 18.6751 66.7617 19.5605C66.5664 20.4395 66.4688 21.5332 66.4688 22.8418ZM85.6973 22.8418C85.6973 24.0007 85.6094 25.0358 85.4336 25.9473C85.2578 26.8587 84.9811 27.6302 84.6035 28.2617C84.2259 28.8932 83.7376 29.375 83.1387 29.707C82.5397 30.0326 81.8203 30.1953 80.9805 30.1953C79.9193 30.1953 79.0404 29.9056 78.3438 29.3262C77.6536 28.7467 77.1361 27.9102 76.791 26.8164C76.4525 25.7161 76.2832 24.3913 76.2832 22.8418C76.2832 21.3184 76.4362 20.0098 76.7422 18.916C77.0547 17.8158 77.556 16.9727 78.2461 16.3867C78.9362 15.7943 79.8477 15.498 80.9805 15.498C82.0547 15.498 82.9401 15.791 83.6367 16.377C84.3333 16.9564 84.8509 17.7962 85.1895 18.8965C85.528 19.9902 85.6973 21.3053 85.6973 22.8418ZM77.9141 22.8418C77.9141 24.1699 78.015 25.2767 78.2168 26.1621C78.4186 27.0475 78.7441 27.7116 79.1934 28.1543C79.6491 28.5905 80.2448 28.8086 80.9805 28.8086C81.7161 28.8086 82.3086 28.5905 82.7578 28.1543C83.2135 27.7181 83.5423 27.0573 83.7441 26.1719C83.9525 25.2865 84.0566 24.1764 84.0566 22.8418C84.0566 21.5332 83.9557 20.4395 83.7539 19.5605C83.5521 18.6751 83.2266 18.0111 82.7773 17.5684C82.3281 17.1191 81.7292 16.8945 80.9805 16.8945C80.2318 16.8945 79.6328 17.1191 79.1836 17.5684C78.7344 18.0111 78.4089 18.6751 78.207 19.5605C78.0117 20.4395 77.9141 21.5332 77.9141 22.8418ZM97.1426 22.8418C97.1426 24.0007 97.0547 25.0358 96.8789 25.9473C96.7031 26.8587 96.4264 27.6302 96.0488 28.2617C95.6712 28.8932 95.1829 29.375 94.584 29.707C93.985 30.0326 93.2656 30.1953 92.4258 30.1953C91.3646 30.1953 90.4857 29.9056 89.7891 29.3262C89.099 28.7467 88.5814 27.9102 88.2363 26.8164C87.8978 25.7161 87.7285 24.3913 87.7285 22.8418C87.7285 21.3184 87.8815 20.0098 88.1875 18.916C88.5 17.8158 89.0013 16.9727 89.6914 16.3867C90.3815 15.7943 91.293 15.498 92.4258 15.498C93.5 15.498 94.3854 15.791 95.082 16.377C95.7786 16.9564 96.2962 17.7962 96.6348 18.8965C96.9733 19.9902 97.1426 21.3053 97.1426 22.8418ZM89.3594 22.8418C89.3594 24.1699 89.4603 25.2767 89.6621 26.1621C89.8639 27.0475 90.1895 27.7116 90.6387 28.1543C91.0944 28.5905 91.6901 28.8086 92.4258 28.8086C93.1615 28.8086 93.7539 28.5905 94.2031 28.1543C94.6589 27.7181 94.9876 27.0573 95.1895 26.1719C95.3978 25.2865 95.502 24.1764 95.502 22.8418C95.502 21.5332 95.401 20.4395 95.1992 19.5605C94.9974 18.6751 94.6719 18.0111 94.2227 17.5684C93.7734 17.1191 93.1745 16.8945 92.4258 16.8945C91.6771 16.8945 91.0781 17.1191 90.6289 17.5684C90.1797 18.0111 89.8542 18.6751 89.6523 19.5605C89.457 20.4395 89.3594 21.5332 89.3594 22.8418ZM110.385 30H108.803V19.8828C108.803 19.4987 108.803 19.1699 108.803 18.8965C108.809 18.6165 108.816 18.3626 108.822 18.1348C108.835 17.9004 108.852 17.6628 108.871 17.4219C108.669 17.6302 108.48 17.8092 108.305 17.959C108.129 18.1022 107.911 18.2812 107.65 18.4961L106.02 19.8047L105.17 18.7012L109.037 15.7227H110.385V30ZM125.229 22.8418C125.229 24.0007 125.141 25.0358 124.965 25.9473C124.789 26.8587 124.512 27.6302 124.135 28.2617C123.757 28.8932 123.269 29.375 122.67 29.707C122.071 30.0326 121.352 30.1953 120.512 30.1953C119.451 30.1953 118.572 29.9056 117.875 29.3262C117.185 28.7467 116.667 27.9102 116.322 26.8164C115.984 25.7161 115.814 24.3913 115.814 22.8418C115.814 21.3184 115.967 20.0098 116.273 18.916C116.586 17.8158 117.087 16.9727 117.777 16.3867C118.467 15.7943 119.379 15.498 120.512 15.498C121.586 15.498 122.471 15.791 123.168 16.377C123.865 16.9564 124.382 17.7962 124.721 18.8965C125.059 19.9902 125.229 21.3053 125.229 22.8418ZM117.445 22.8418C117.445 24.1699 117.546 25.2767 117.748 26.1621C117.95 27.0475 118.275 27.7116 118.725 28.1543C119.18 28.5905 119.776 28.8086 120.512 28.8086C121.247 28.8086 121.84 28.5905 122.289 28.1543C122.745 27.7181 123.074 27.0573 123.275 26.1719C123.484 25.2865 123.588 24.1764 123.588 22.8418C123.588 21.5332 123.487 20.4395 123.285 19.5605C123.083 18.6751 122.758 18.0111 122.309 17.5684C121.859 17.1191 121.26 16.8945 120.512 16.8945C119.763 16.8945 119.164 17.1191 118.715 17.5684C118.266 18.0111 117.94 18.6751 117.738 19.5605C117.543 20.4395 117.445 21.5332 117.445 22.8418ZM133.275 30H131.693V19.8828C131.693 19.4987 131.693 19.1699 131.693 18.8965C131.7 18.6165 131.706 18.3626 131.713 18.1348C131.726 17.9004 131.742 17.6628 131.762 17.4219C131.56 17.6302 131.371 17.8092 131.195 17.959C131.02 18.1022 130.801 18.2812 130.541 18.4961L128.91 19.8047L128.061 18.7012L131.928 15.7227H133.275V30ZM148.119 22.8418C148.119 24.0007 148.031 25.0358 147.855 25.9473C147.68 26.8587 147.403 27.6302 147.025 28.2617C146.648 28.8932 146.16 29.375 145.561 29.707C144.962 30.0326 144.242 30.1953 143.402 30.1953C142.341 30.1953 141.462 29.9056 140.766 29.3262C140.076 28.7467 139.558 27.9102 139.213 26.8164C138.874 25.7161 138.705 24.3913 138.705 22.8418C138.705 21.3184 138.858 20.0098 139.164 18.916C139.477 17.8158 139.978 16.9727 140.668 16.3867C141.358 15.7943 142.27 15.498 143.402 15.498C144.477 15.498 145.362 15.791 146.059 16.377C146.755 16.9564 147.273 17.7962 147.611 18.8965C147.95 19.9902 148.119 21.3053 148.119 22.8418ZM140.336 22.8418C140.336 24.1699 140.437 25.2767 140.639 26.1621C140.84 27.0475 141.166 27.7116 141.615 28.1543C142.071 28.5905 142.667 28.8086 143.402 28.8086C144.138 28.8086 144.73 28.5905 145.18 28.1543C145.635 27.7181 145.964 27.0573 146.166 26.1719C146.374 25.2865 146.479 24.1764 146.479 22.8418C146.479 21.5332 146.378 20.4395 146.176 19.5605C145.974 18.6751 145.648 18.0111 145.199 17.5684C144.75 17.1191 144.151 16.8945 143.402 16.8945C142.654 16.8945 142.055 17.1191 141.605 17.5684C141.156 18.0111 140.831 18.6751 140.629 19.5605C140.434 20.4395 140.336 21.5332 140.336 22.8418Z" fill="white"/>
<rect x="1.5" y="1.5" width="233" height="42" rx="3.5" stroke="#CD5485" stroke-width="3"/>
<g clip-path="url(#clip0_70_3)">
<path d="M245.101 30.7102C244.618 30.7102 244.195 30.5291 243.833 30.1669C243.109 29.4425 243.109 28.2955 243.833 27.6314L256.631 14.8331C257.356 14.1087 258.503 14.1087 259.167 14.8331C259.891 15.5576 259.891 16.7046 259.167 17.3686L246.369 30.1669C246.006 30.5291 245.584 30.7102 245.101 30.7102Z" fill="#CD5485"/>
<path d="M257.899 30.7102C257.416 30.7102 256.994 30.5291 256.631 30.1669L243.833 17.3686C243.109 16.6442 243.109 15.4972 243.833 14.8331C244.558 14.1087 245.705 14.1087 246.369 14.8331L259.167 27.6314C259.891 28.3558 259.891 29.5029 259.167 30.1669C258.805 30.5291 258.382 30.7102 257.899 30.7102Z" fill="#CD5485"/>
</g>
<defs>
<clipPath id="clip0_70_3">
<rect width="17" height="17" fill="white" transform="translate(243 14)"/>
</clipPath>
</defs>
</svg>
